PathFileType	4	(X/Y/Z)	RBDS014\RBDS014runT35.trc
DataRate	CameraRate	NumFrames	NumMarkers	Units	OrigDataRate	OrigDataStartFrame	OrigNumFrames
150.000000	150.000000	5	33	mm	150.000000	3937	4500
Frame#	Time	L.ASIS			L.Heel.Bottom			L.Heel.Lateral			L.Heel.Top			L.Iliac.Crest			L.MT1			L.MT5			L.PSIS			L.Shank.Bottom.Lateral			L.Shank.Bottom.Medial			L.Shank.Top.Lateral			L.Shank.Top.Medial			L.Thigh.Bottom.Lateral			L.Thigh.Bottom.Medial			L.Thigh.Top.Lateral			L.Thigh.Top.Medial			R.ASIS			R.ASY			R.Heel.Bottom			R.Heel.Lateral			R.Heel.Top			R.Iliac.Crest			R.MT1			R.MT5			R.PSIS			R.Shank.Bottom.Lateral			R.Shank.Bottom.Medial			R.Shank.Top.Lateral			R.Shank.Top.Medial			R.Thigh.Bottom.Lateral			R.Thigh.Bottom.Medial			R.Thigh.Top.Lateral			R.Thigh.Top.Medial			
		X1	Y1	Z1	X2	Y2	Z2	X3	Y3	Z3	X4	Y4	Z4	X5	Y5	Z5	X6	Y6	Z6	X7	Y7	Z7	X8	Y8	Z8	X9	Y9	Z9	X10	Y10	Z10	X11	Y11	Z11	X12	Y12	Z12	X13	Y13	Z13	X14	Y14	Z14	X15	Y15	Z15	X16	Y16	Z16	X17	Y17	Z17	X18	Y18	Z18	X19	Y19	Z19	X20	Y20	Z20	X21	Y21	Z21	X22	Y22	Z22	X23	Y23	Z23	X24	Y24	Z24	X25	Y25	Z25	X26	Y26	Z26	X27	Y27	Z27	X28	Y28	Z28	X29	Y29	Z29	X30	Y30	Z30	X31	Y31	Z31	X32	Y32	Z32	X33	Y33	Z33	

3938	26.24666666666667	2167.785680361911	1078.041216650817	923.1800121086992	1594.453045614551	121.8733397721946	1023.203368452791	1623.940463270695	125.6238143925799	980.4967702837504	1623.99592573463	162.69531308282	1017.277240530559	2118.384899681379	1146.80236069205	890.9669541350793	1809.713649954954	45.28611459769581	1075.209923566433	1767.879462820843	42.78856951251905	958.2137141025172	1997.691170451723	1114.575401913481	1011.022883656207	1747.988860427956	235.0525357900276	946.8947285443323	1712.252130383773	262.6894200263088	979.6458197269266	1780.875532557714	304.4870367610154	924.6719587222958	1746.65822589873	332.2758536923418	955.7995085219208	2005.759909924402	705.2173546072981	875.1506610198727	1948.275111308119	715.6130194195466	918.3582454468556	2012.65033299517	814.4226022964617	864.0942362543548	1960.702445813172	824.7985231001234	907.9513097604715	2193.685146032649	1084.994195086225	1160.76292451889	2070.098879858372	306.7800593826548	1100.139780537265	1886.215951488694	400.1711526556903	1086.003011160791	1918.666500865353	402.8712704568153	1124.526253796377	1928.617986704901	430.2001137257367	1081.84402504081	2131.12974657435	1158.635517325851	1196.073194724992	2061.805264158033	246.0957131869399	1054.328228569472	2031.709150500452	270.9483237300476	1169.421034272734	2013.704746010783	1119.155446244148	1102.82353839767	2062.705064848428	461.4119015208959	1141.525484160899	2048.235766326003	492.3622613725287	1103.149467148079	2128.543517702396	513.4217122254668	1155.941219794352	2108.800001869092	544.1203434179801	1117.115004981812	2338.57281268955	758.1811738929486	1188.933890900654	2287.290836998656	713.9907664792954	1160.165309769545	2259.487851896772	830.4683817335599	1212.157802711793	2210.566822941563	788.2097590259476	1185.52845015973	
3939	26.25333333333333	2170.045955279161	1081.935788648562	923.3781152696699	1578.031874426651	133.8412802696078	1021.682985977419	1607.887831733553	135.6255846012411	979.1050127470644	1609.574342431479	172.9663094799018	1015.62161044042	2122.373301481683	1151.939109622891	892.2881580901897	1788.641850760851	45.64394471177769	1074.861031162756	1746.944465970866	44.49494321880555	957.5322435769338	2000.330590903878	1119.72709542552	1010.921173250944	1732.662267303904	242.8242931774369	945.7087552388579	1697.353820681599	270.1064808286213	979.2988723903904	1765.463653176827	312.5304372909619	924.0969241987177	1731.68874379581	339.9140801837646	956.0258456170723	1996.933024569589	711.0797536337516	875.6597953713291	1940.27188025746	723.4231057573732	919.4557266296856	2007.406232026475	820.0069514359284	864.7168144422931	1956.343330197551	832.0462326024206	909.1784667801877	2195.996117196419	1091.632586615775	1160.103855442683	2096.89093800905	295.616911030632	1099.835205710513	1907.015213873013	375.7653836547551	1084.826969114198	1939.084374777368	380.8958356835682	1123.440575612853	1947.203138209132	408.7499010648687	1080.692228825044	2132.396667396811	1165.0569452297	1196.2594301674	2093.288615177769	234.5334246506129	1054.235857579939	2061.141514917655	257.5352625768198	1169.165663234295	2016.077620521531	1125.509664974657	1102.784619659464	2078.923266504854	449.2406069724333	1140.61607214794	2062.634163438212	479.1048088905649	1102.165917468106	2141.265130749597	505.4900222144042	1155.035637378477	2119.653685329259	534.758965000736	1116.143373891607	2342.61977926223	767.7480478056337	1187.729124446389	2291.500528617738	722.7846756898396	1159.881206929685	2262.888792697391	839.0322900571581	1211.790694232801	2214.228909158311	796.0863574310342	1185.889060888337	
3940	26.26	2172.414372410142	1085.64896038121	923.7432856939623	1562.744444442741	146.4676460438241	1019.977620500448	1592.908714642657	146.2803218967471	977.5699963001772	1596.283566491915	183.7291928991912	1013.892740643503	2126.320266844179	1156.998247877176	893.6281266252103	1767.95216156035	46.52631425819857	1074.433200826354	1726.594598636176	46.78996749681098	956.7404120508403	2003.042029992683	1124.811196348221	1010.623012318192	1718.292004338502	250.8376630192768	944.489450741989	1683.382766600687	277.7313230511502	978.8989721704996	1751.002480257883	320.8252745671765	923.5369782531011	1717.677035291918	347.7751253699523	956.284686061691	1988.706635949488	717.1296924720812	876.2164407423273	1932.890800108577	731.3222260038798	920.5457632445956	2002.597813377356	825.7123238449753	865.3144856341053	1952.5338114125	839.2925336667354	910.4321431490574	2198.135448883767	1098.002608673785	1159.659351235694	2124.113055357999	284.8629215112448	1099.434675198677	1929.226271487185	351.4158421900537	1083.358401829996	1960.686670929849	358.9041333969406	1122.099799338342	1967.02124953456	387.1802064051007	1079.326978013136	2133.515180311564	1171.264716263727	1196.462999920463	2125.250036259941	223.7460082976015	1053.99107014104	2091.008645531293	244.628847050578	1168.737660779228	2018.471656833269	1131.689389906719	1102.555940097806	2095.605800776784	436.8954622092435	1139.549560552177	2077.677322141116	465.4644440933369	1100.901173944874	2154.143148110085	497.1644467491712	1153.969981432415	2130.916111943739	524.786450385718	1114.862553734139	2345.942959184949	776.3477042659794	1186.583292055378	2294.892968382097	730.7237873623608	1159.710569425081	2265.787897657484	846.8803070490555	1211.369947490384	2217.287507231619	803.383791462965	1186.216516063424	
3941	26.26666666666667	2174.828472318012	1089.130643226474	924.2542298509919	1548.607552341482	159.7130717891195	1018.153630577721	1578.999865701651	157.5854732465013	975.9418462973453	1584.109271091098	194.9605725575877	1012.148645481714	2130.16783747039	1161.852771508727	894.9232573436506	1747.663860702791	48.08602461191897	1073.894528144185	1706.844645403254	49.80571753630426	955.8568462773246	2005.747771387382	1129.735886664947	1010.150097767299	1704.877457101936	259.0568410804351	943.2718787529077	1670.330919491956	285.557762845163	978.4455759860895	1737.534258225268	329.3085956738356	923.0125810076564	1704.650667868417	355.8285403056495	956.5547206027335	1981.118280537783	723.2931852800398	876.8565321293198	1926.161201184231	739.2290034463414	921.6709603298907	1998.226292783656	831.4767490737773	865.8972870820737	1949.267181404932	846.474539802056	911.7236276468362	2200.057089686128	1103.969724683186	1159.436030573186	2151.691162842032	274.5533323433419	1098.93409418299	1952.775988396243	327.2448851423062	1081.618591899013	1983.412111179129	336.9845658007987	1120.523494353871	1988.012421292702	365.6055687005181	1077.769994509691	2134.491596090092	1177.141559910601	1196.657653507371	2157.571184749603	213.7747848541474	1053.582737476915	2121.221296639741	232.2365950040572	1168.130040087369	2020.811040392535	1137.579013753372	1102.147714822694	2112.708090738256	424.3915340591836	1138.34713516342	2093.334720496448	451.4975944044256	1099.388586632999	2167.147899208559	488.4385893662339	1152.782672092444	2142.580377143168	514.2422107482672	1113.321298107483	2348.560876352822	783.8518706839671	1185.533042543078	2297.484217391725	737.6806502979804	1159.685429056675	2268.185437242868	853.8892980601311	1210.922973178428	2219.741111005676	809.9795942507524	1186.524617098386	
3942	26.27333333333333	2177.230769172478	1092.353293027654	924.8774847361997	1535.597646261489	173.5267430628608	1016.321273399967	1566.113199030443	169.5284478428419	974.3072552500125	1572.996981995126	206.6342419401745	1010.477015692337	2133.858847459411	1166.38931876373	896.1121539051592	1727.809947966596	50.45638484934032	1073.211619949167	1687.684701554437	53.66541147860917	954.9061619877306	2008.376777471837	1134.413419056219	1009.534894950923	1692.385377255395	267.4576557544921	942.1015045991982	1658.167081157104	293.5940852736877	977.9565552757267	1725.072715811161	337.9271994246744	922.5507868049838	1692.614073211324	364.0551313224893	956.8259681851991	1974.215966318405	729.489740799164	877.6048493495815	1920.118308284237	747.0583090677738	922.857696347034	1994.312299789976	837.2302016302619	866.4713680386101	1946.54046764188	853.5280506372651	913.0445580670167	2201.732541083099	1109.418610012636	1159.427732764536	2179.538102684223	264.7199372326425	1098.323069544893	1977.572690054018	303.3735794713832	1079.625496174251	2007.18763646918	315.2284769968105	1118.727582292449	2010.098280440849	344.1379021016473	1076.035661700179	2135.335376546514	1182.579219866835	1196.823827874126	2190.11932156961	204.6514692638924	1052.997851375452	2151.691131694069	220.3724120505771	1167.335649433746	2023.027102587367	1143.072554345842	1101.585071462028	2130.182898678794	411.7372066516492	1137.029392383819	2109.561937015044	437.2590754040358	1097.668045442214	2180.252184694594	479.2962362202663	1151.514365928294	2154.624948189719	503.1631861277573	1111.581124455155	2350.488532812146	790.1521818536809	1184.620807071678	2299.286047063218	743.5527791015174	1159.834545014172	2270.082741069248	859.9532615583437	1210.489168638663	2221.589834996639	815.7707995529967	1186.83470798344	
